<svg xmlns="http://www.w3.org/2000/svg" width="30" height="30" viewBox="0 0 30 30">
    <g transform="translate(-270 -20)">
        <circle cx="15" cy="15" r="15" fill="#282828" transform="translate(270 20)"/>
        <g>
            <path fill="none" fill-rule="evenodd" d="M0 0h16v16H0z" transform="translate(277 27)"/>
            <path fill="#fff" d="M13.6 14.6h-1.2v-1.3a1.876 1.876 0 0 0-1.8-1.943H7A1.876 1.876 0 0 0 5.2 13.3v1.3H4v-1.3a3.126 3.126 0 0 1 3-3.238h3.6a3.126 3.126 0 0 1 3 3.238zM8.8 8.771a3.561 3.561 0 0 1-3.118-1.942 4.154 4.154 0 0 1 0-3.886A3.561 3.561 0 0 1 8.8 1a3.751 3.751 0 0 1 3.6 3.886 3.751 3.751 0 0 1-3.6 3.885zm0-1.3a2.5 2.5 0 0 0 2.4-2.59A2.5 2.5 0 0 0 8.8 2.3a2.5 2.5 0 0 0-2.4 2.59 2.5 2.5 0 0 0 2.4 2.586z" transform="translate(277 27) translate(-.8 -.2)"/>
        </g>
    </g>
</svg>
