<svg xmlns="http://www.w3.org/2000/svg" width="46.8" height="50.989" viewBox="0 0 46.8 50.989">
    <defs>
        <style>
            .cls-1{fill:#2582a1}
        </style>
    </defs>
    <g id="XMLID_1_" transform="translate(-82.4 -67.5)">
        <path id="XMLID_13_" d="M86.91 249.3l-4.51 12.984h2.639l.935-2.89h4.468l.908 2.89h2.723L89.618 249.3m-2.96 7.958l1.55-4.761h.028l1.508 4.761zm15.567-3.1a3.679 3.679 0 0 0-1.215-1.1 3.49 3.49 0 0 0-1.759-.419 3.071 3.071 0 0 0-1.466.349 2.7 2.7 0 0 0-1.1 1.1h-.028v-1.2h-2.25v16.475h2.374v-8.237h.028a2.867 2.867 0 0 0 1.117 1.047 3.126 3.126 0 0 0 1.48.349 3.365 3.365 0 0 0 1.661-.4 3.642 3.642 0 0 0 1.187-1.075 4.642 4.642 0 0 0 .712-1.55 7.111 7.111 0 0 0 .237-1.815 7.916 7.916 0 0 0-.237-1.927 5.568 5.568 0 0 0-.74-1.592m-1.522 4.566a3.268 3.268 0 0 1-.335.963 2.022 2.022 0 0 1-.628.656 2 2 0 0 1-1.941 0 1.924 1.924 0 0 1-.642-.656 2.814 2.814 0 0 1-.349-.963 5.794 5.794 0 0 1-.112-1.1 5.981 5.981 0 0 1 .1-1.131 2.925 2.925 0 0 1 .349-.963 2.274 2.274 0 0 1 .628-.684 1.788 1.788 0 0 1 .977-.265 1.662 1.662 0 0 1 .963.265 2.06 2.06 0 0 1 .642.7 3.381 3.381 0 0 1 .363.977 5.941 5.941 0 0 1 .112 1.117 10.021 10.021 0 0 1-.126 1.089m10.709-4.747a3.946 3.946 0 0 0-1.41-1.005 4.662 4.662 0 0 0-1.843-.349 4.614 4.614 0 0 0-1.843.349 4.019 4.019 0 0 0-1.4 1.005 4.657 4.657 0 0 0-.908 1.564 6.33 6.33 0 0 0-.321 2.052 6.182 6.182 0 0 0 .321 2.038 4.373 4.373 0 0 0 .908 1.55 3.812 3.812 0 0 0 1.4.991 4.817 4.817 0 0 0 1.843.349 4.568 4.568 0 0 0 1.843-.349 3.75 3.75 0 0 0 1.41-.991 4.73 4.73 0 0 0 .908-1.55 6.182 6.182 0 0 0 .321-2.038 6.33 6.33 0 0 0-.321-2.052 4.657 4.657 0 0 0-.908-1.564m-1.257 4.719a3.267 3.267 0 0 1-.335.963 1.926 1.926 0 0 1-.656.684 1.884 1.884 0 0 1-1.005.251 1.851 1.851 0 0 1-1.005-.251 1.784 1.784 0 0 1-.642-.684 2.926 2.926 0 0 1-.349-.963 6.273 6.273 0 0 1 0-2.206 2.925 2.925 0 0 1 .349-.963 2.006 2.006 0 0 1 .642-.684 1.853 1.853 0 0 1 1.005-.265 1.74 1.74 0 0 1 1.005.265 2.048 2.048 0 0 1 .656.684 2.629 2.629 0 0 1 .335.963 5.891 5.891 0 0 1 .1 1.1 5.789 5.789 0 0 1-.1 1.1m3.155 3.588h2.374V249.3h-2.374zm3.9 0h2.374V249.3h-2.374zm11.672-6.744a4.436 4.436 0 0 0-.908-1.564 3.946 3.946 0 0 0-1.41-1.005 4.662 4.662 0 0 0-1.843-.349 4.614 4.614 0 0 0-1.843.349 4.019 4.019 0 0 0-1.4 1.005 4.657 4.657 0 0 0-.908 1.564 6.329 6.329 0 0 0-.321 2.052 6.182 6.182 0 0 0 .321 2.038 4.373 4.373 0 0 0 .908 1.55 3.812 3.812 0 0 0 1.4.991 4.818 4.818 0 0 0 1.843.349 4.568 4.568 0 0 0 1.843-.349 3.863 3.863 0 0 0 1.41-.991 4.73 4.73 0 0 0 .908-1.55 6.182 6.182 0 0 0 .321-2.038 6.73 6.73 0 0 0-.321-2.052m-2.164 3.155a2.926 2.926 0 0 1-.349.963 1.926 1.926 0 0 1-.656.684 1.884 1.884 0 0 1-1.005.251 1.851 1.851 0 0 1-1.005-.251 1.784 1.784 0 0 1-.642-.684 2.63 2.63 0 0 1-.335-.963 6.273 6.273 0 0 1 0-2.206 3.267 3.267 0 0 1 .335-.963 2.15 2.15 0 0 1 .642-.684 1.853 1.853 0 0 1 1.005-.265 1.74 1.74 0 0 1 1.005.265 2.048 2.048 0 0 1 .656.684 3.277 3.277 0 0 1 .349.963 5.89 5.89 0 0 1 .1 1.1 4.842 4.842 0 0 1-.1 1.1" class="cls-1" transform="translate(0 -156.417)"/>
        <path id="XMLID_26_" d="M202.876 364.289h-1.8v-1.578h-.476v3.812h.475v-1.773h1.8v1.787h.475v-3.812h-.475m3.113-.126a1.5 1.5 0 0 0-1.34.712 2.379 2.379 0 0 0-.349 1.326 2.328 2.328 0 0 0 .419 1.424 1.539 1.539 0 0 0 1.271.586 1.517 1.517 0 0 0 1.326-.67 2.418 2.418 0 0 0 .4-1.424 2.195 2.195 0 0 0-.349-1.3 1.588 1.588 0 0 0-1.382-.656m.949 3.086a.969.969 0 0 1-.908.489 1.091 1.091 0 0 1-.949-.433 1.858 1.858 0 0 1-.293-1.061 1.762 1.762 0 0 1 .349-1.2 1.087 1.087 0 0 1 .894-.4 1.062 1.062 0 0 1 .88.4 1.66 1.66 0 0 1 .321 1.089 2.254 2.254 0 0 1-.293 1.117m3.965-1.005a1.444 1.444 0 0 0-.531-.237l-.475-.126a2.6 2.6 0 0 1-.614-.209.441.441 0 0 1-.209-.4.611.611 0 0 1 .181-.447.744.744 0 0 1 .572-.2.788.788 0 0 1 .712.307 1.007 1.007 0 0 1 .14.475h.447a1.077 1.077 0 0 0-.377-.921 1.443 1.443 0 0 0-.908-.293 1.212 1.212 0 0 0-.908.335 1.193 1.193 0 0 0-.321.852.829.829 0 0 0 .321.712 2.329 2.329 0 0 0 .642.251l.461.112a1.447 1.447 0 0 1 .545.223.536.536 0 0 1 .181.447.57.57 0 0 1-.4.572 1.252 1.252 0 0 1-.475.084.881.881 0 0 1-.81-.377 1.138 1.138 0 0 1-.14-.531h-.447a1.31 1.31 0 0 0 .349.977 1.363 1.363 0 0 0 1.005.363 1.724 1.724 0 0 0 .963-.265 1 1 0 0 0 .419-.908.957.957 0 0 0-.321-.8m2.974-1.969h-1.564v3.812h.475v-1.606h1.089a.919.919 0 0 0 .782-.335 1.248 1.248 0 0 0 .251-.782 1.139 1.139 0 0 0-.279-.81 1.069 1.069 0 0 0-.754-.279m.363 1.62a.871.871 0 0 1-.517.154h-.935v-1.326h.935a.955.955 0 0 1 .433.084.574.574 0 0 1 .279.572.614.614 0 0 1-.2.517m1.767 2.196h.475v-3.812H216zm1.326-3.351h1.174v3.365h.475v-3.365h1.187v-.461h-2.834zm4.3-.461l-1.326 3.812h.489l.377-1.145h1.368l.363 1.145h.517l-1.271-3.812zm-.321 2.248l.558-1.689.545 1.689zm3.393-2.248h-.475v3.812h2.234v-.447H224.7zm4.873 1.969a1.444 1.444 0 0 0-.531-.237l-.475-.126a2.6 2.6 0 0 1-.614-.209.441.441 0 0 1-.209-.4.611.611 0 0 1 .182-.447.744.744 0 0 1 .572-.2.788.788 0 0 1 .712.307 1.183 1.183 0 0 1 .154.475h.447a1.077 1.077 0 0 0-.377-.921 1.443 1.443 0 0 0-.908-.293 1.158 1.158 0 0 0-.894.335 1.193 1.193 0 0 0-.321.852.829.829 0 0 0 .321.712 2.329 2.329 0 0 0 .642.251l.461.112a1.446 1.446 0 0 1 .545.223.531.531 0 0 1 .168.447.57.57 0 0 1-.4.572 1.23 1.23 0 0 1-.461.084.866.866 0 0 1-.81-.377 1.138 1.138 0 0 1-.14-.531h-.447a1.31 1.31 0 0 0 .349.977 1.351 1.351 0 0 0 .991.363 1.724 1.724 0 0 0 .963-.265 1.155 1.155 0 0 0 .084-1.7" class="cls-1" transform="translate(-101.697 -253.899)"/>
        <path id="XMLID_34_" d="M132.777 146.258l1.41 1.187 1.41-1.187v-3.588h-2.806m2.946-3.923h-3.365v-.866l-7.679 9.424h4.063l4.007-5.026h2.974v-3.267zm-2.96-.391h2.806v-3.016l1.48-2.5H131.1l1.661 2.5v3.016zm-8.6-10.555H116.4v14.758h3.672l8.447-10.08zm-2.792 5.11h-1.215v1.312h-1.061v-1.313h-1.215v-1.159h1.215v-1.312h1.061v1.312h1.215zm5.99 8.963l.586-2.262h.8v-6.3l-8.21 9.815v4.328l4.1-4.9h1.885a.81.81 0 0 0 .838-.684m.447-5.333l-.6.656-.6-.656z" class="cls-1" transform="translate(-29.253 -51.881)"/>
        <path id="XMLID_35_" fill="#fdb931" d="M186.456 72.191l-.1-.028c-4.747-1.326-5.04-3.784-4.915-4.663a8.634 8.634 0 0 0 .042 4.175 8.247 8.247 0 0 0 4.286 1.717c.2.028.391.07.572.112 4.789.977 5.194 5.236 3.449 7.288.182-.391 2.206-4.817-2.723-5.724-.251-.042-.475-.084-.684-.126-3.477-.7-3.8-1.271-3.965-1.326a4.832 4.832 0 0 0 3.965 4.607h.028c3.044.4 3.337 2.052 3.365 2.583v.014l.014-.014a4.359 4.359 0 0 0 1.494-3.253v-.377c-.07-2.094-1.424-4.314-4.831-4.984" transform="translate(-85.012)"/>
        <path id="XMLID_50_" fill="#97999c" d="M82.5 413.177h.81v2.3h.335v-2.29h.81v-.307H82.5m4.663-.084a1.008 1.008 0 0 0-.921.489 1.573 1.573 0 0 0-.242.915 1.607 1.607 0 0 0 .279.963 1.043 1.043 0 0 0 .866.391 1.058 1.058 0 0 0 .908-.447 1.682 1.682 0 0 0 .279-.977 1.524 1.524 0 0 0-.237-.88 1.058 1.058 0 0 0-.935-.447m.656 2.108a.655.655 0 0 1-.614.335.74.74 0 0 1-.656-.293 1.2 1.2 0 0 1-.2-.726 1.286 1.286 0 0 1 .237-.824.769.769 0 0 1 .6-.279.73.73 0 0 1 .6.279 1.115 1.115 0 0 1 .223.74 1.737 1.737 0 0 1-.2.768m3.951-.433a.979.979 0 0 1-.084.447.561.561 0 0 1-.558.307.507.507 0 0 1-.489-.279.959.959 0 0 1-.1-.475v-1.608h-.321v1.466a2.061 2.061 0 0 0 .112.74.828.828 0 0 0 .824.475.809.809 0 0 0 .824-.475 1.751 1.751 0 0 0 .112-.74v-1.466h-.321zm3.8.461a.6.6 0 0 1-.531.293.66.66 0 0 1-.572-.279 1.323 1.323 0 0 1-.2-.74 1.4 1.4 0 0 1 .209-.838.657.657 0 0 1 .558-.265.55.55 0 0 1 .433.154.67.67 0 0 1 .209.4H96a.9.9 0 0 0-.279-.586.936.936 0 0 0-.7-.265.975.975 0 0 0-.824.4 1.563 1.563 0 0 0-.279.949 1.594 1.594 0 0 0 .363 1.131.958.958 0 0 0 .7.279.918.918 0 0 0 .754-.335 1.257 1.257 0 0 0 .279-.684h-.321a.927.927 0 0 1-.126.377m3.909-.991h-1.227v-1.069h-.335v2.611h.335v-1.215h1.229v1.215h.322v-2.611h-.321zm2.374 1.536h.321v-2.605h-.321zm3.881-.5l-1.187-2.108h-.377v2.611h.307v-2.108l1.215 2.108h.363v-2.608h-.307v2.108zm3.309-.6h.754a.86.86 0 0 1-.209.656.7.7 0 0 1-.517.209.656.656 0 0 1-.6-.293 1.372 1.372 0 0 1-.182-.754 1.219 1.219 0 0 1 .223-.81.686.686 0 0 1 .545-.265.812.812 0 0 1 .461.126.624.624 0 0 1 .237.419h.321a.922.922 0 0 0-.433-.712 1.088 1.088 0 0 0-.572-.14 1.021 1.021 0 0 0-.8.363 1.59 1.59 0 0 0-.321 1.047 1.508 1.508 0 0 0 .335 1.033.969.969 0 0 0 .712.293 1.029 1.029 0 0 0 .531-.126 1.3 1.3 0 0 0 .293-.279l.07.335h.209v-1.4h-1.047v.293zm5.738-1.508h-.321v2.611h1.522v-.307h-1.2zm3.058 2.611h.321v-2.608h-.321zm3.183-.391l-.684-2.22h-.349l.866 2.611h.349l.88-2.611h-.363zm3.155-.81h1.312v-.307h-1.312v-.8h1.426v-.321h-1.731v2.625h1.759v-.307h-1.452zm4.887-.07a.976.976 0 0 0-.363-.168l-.321-.084a1.519 1.519 0 0 1-.419-.14.3.3 0 0 1-.14-.279.458.458 0 0 1 .126-.307.526.526 0 0 1 .391-.126.518.518 0 0 1 .475.209.624.624 0 0 1 .1.321h.307a.735.735 0 0 0-.251-.628 1.021 1.021 0 0 0-.628-.2.792.792 0 0 0-.614.223.813.813 0 0 0-.223.572.551.551 0 0 0 .223.489 1.069 1.069 0 0 0 .433.168l.307.084a1.227 1.227 0 0 1 .377.154c.084.056.112.154.112.307a.4.4 0 0 1-.279.391.819.819 0 0 1-.321.056.558.558 0 0 1-.545-.265.8.8 0 0 1-.1-.363h-.308a.957.957 0 0 0 .237.67.917.917 0 0 0 .684.251 1.131 1.131 0 0 0 .656-.181.7.7 0 0 0 .279-.614.644.644 0 0 0-.2-.544" transform="translate(-.086 -297.09)"/>
    </g>
</svg>
