<svg xmlns="http://www.w3.org/2000/svg" width="10.343" height="8.398" viewBox="0 0 10.343 8.398">
    <defs>
        <style>
            .cls-1{fill:#868686}
        </style>
    </defs>
    <g id="doctor-team-1" transform="translate(-94.041 -172.408)">
        <path id="Path_1591" d="M356.688 252.633a1.946 1.946 0 0 1-1.945-1.945 1.974 1.974 0 0 1 .433-1.227l.026-.032.039-.026a3.149 3.149 0 0 1 2.881 0l.039.026.026.032a1.948 1.948 0 0 1-1.5 3.172zm-1.137-2.81a1.4 1.4 0 0 0-.291.866 1.428 1.428 0 1 0 2.565-.866 2.692 2.692 0 0 0-2.274 0zm1.525-1.143h-.776a.258.258 0 0 1 0-.517h.775a.258.258 0 1 1 0 .517z" class="cls-1" transform="translate(-257.479 -74.819)"/>
        <path id="Path_1592" d="M242.654 218.108a.259.259 0 0 1-.258-.258v-.775a.258.258 0 0 1 .517 0v.769a.261.261 0 0 1-.259.264zm0 6.557a7.88 7.88 0 0 1-2.216-.278c-.956-.291-1.156-.736-1.156-1.053a2.876 2.876 0 0 1 2.106-2.642l.149-.052.116.11a1.419 1.419 0 0 0 1.99 0l.116-.11.149.052a2.883 2.883 0 0 1 2.106 2.642c.012.982-1.803 1.331-3.36 1.331zm-1.234-3.437a2.338 2.338 0 0 0-1.615 2.106c0 .394 1.143.814 2.855.814s2.855-.42 2.855-.814a2.344 2.344 0 0 0-1.615-2.106 1.954 1.954 0 0 1-1.234.446 1.926 1.926 0 0 1-1.246-.446z" class="cls-1" transform="translate(-143.445 -43.859)"/>
        <path id="Path_1593" d="M358.374 175.6a.259.259 0 0 1-.258-.258c0-.239-.556-.581-1.428-.581s-1.428.349-1.428.581a.258.258 0 0 1-.517 0v-1.835c0-.627.833-1.1 1.945-1.1s1.945.472 1.945 1.1v1.828a.261.261 0 0 1-.259.265zm-1.686-1.363a2.86 2.86 0 0 1 1.428.336v-1.066c0-.239-.556-.581-1.428-.581s-1.428.349-1.428.581v1.066a2.86 2.86 0 0 1 1.428-.337z" class="cls-1" transform="translate(-257.479)"/>
        <path id="Path_1594" d="M95.339 245.884a.179.179 0 0 1-.058-.006c-1.027-.233-1.24-.652-1.24-.963a2.255 2.255 0 0 1 1.37-2 1.6 1.6 0 0 1-.239-.84 2.408 2.408 0 0 1 .026-.3.253.253 0 0 1-.026-.116v-1.447c-.006-.523.678-.924 1.583-.924a.259.259 0 0 1 .187.078.23.23 0 0 1 .071.187v.013a.262.262 0 0 1-.258.252.324.324 0 0 1-.078-.013c-.62.019-.995.265-.995.407v.769a.259.259 0 0 1 .239.42 1.079 1.079 0 0 0 .079 1.441.258.258 0 0 1 .019.349.217.217 0 0 1-.129.084 1.809 1.809 0 0 0-1.337 1.641c0 .136.258.323.84.459a.258.258 0 0 1-.058.51z" class="cls-1" transform="translate(0 -66.047)"/>
        <path id="Path_1595" d="M691.306 245.884a.258.258 0 0 1-.058-.51c.581-.129.84-.323.84-.459a1.823 1.823 0 0 0-1.337-1.647.252.252 0 0 1-.129-.084.259.259 0 0 1 .019-.349 1.079 1.079 0 0 0 .084-1.447.263.263 0 0 1 .006-.336.249.249 0 0 1 .233-.084v-.762c0-.136-.375-.388-.995-.407a.324.324 0 0 1-.078.013.258.258 0 0 1-.258-.252v-.013a.281.281 0 0 1 .071-.187.259.259 0 0 1 .187-.078c.9 0 1.589.394 1.589.924v1.447a.309.309 0 0 1-.026.116 1.642 1.642 0 0 1-.213 1.143 2.266 2.266 0 0 1 1.37 2c0 .31-.213.73-1.247.963a.222.222 0 0 1-.058.006z" class="cls-1" transform="translate(-588.227 -66.047)"/>
    </g>
</svg>
