<svg xmlns="http://www.w3.org/2000/svg" width="37" height="37" viewBox="0 0 37 37">
    <defs>
        <style>
            .cls-2{fill:#4b4b4b}
        </style>
    </defs>
    <g id="Group_1301" transform="translate(-316 -120)">
        <rect id="Rectangle_954" width="37" height="37" fill="#cdcdcd" opacity="0.55" rx="5" transform="translate(316 120)"/>
        <g id="iconfinder_00-ELASTOFONT-STORE-READY_sliders_2738302" transform="translate(324 128.009)">
            <path id="Path_301" d="M1.569 6.842h5.066a2.271 2.271 0 0 0 4.4 0h7.594a.569.569 0 1 0 0-1.137h-7.592a2.271 2.271 0 0 0-4.4 0H1.569a.569.569 0 1 0 0 1.137zm7.267-1.713a1.144 1.144 0 1 1-1.144 1.144 1.145 1.145 0 0 1 1.144-1.144z" class="cls-2"/>
            <path id="Path_302" d="M18.631 11.7h-1.218a2.271 2.271 0 0 0-4.4 0H1.569a.569.569 0 0 0 0 1.137h11.442a2.271 2.271 0 0 0 4.4 0h1.218a.569.569 0 0 0 0-1.137zm-3.419 1.713a1.144 1.144 0 1 1 1.144-1.144 1.145 1.145 0 0 1-1.144 1.148z" class="cls-2" transform="translate(0 -1.45)"/>
            <path id="Path_303" d="M18.631 17.7H7.611a2.27 2.27 0 0 0-4.4 0H1.569a.569.569 0 1 0 0 1.137H3.21a2.27 2.27 0 0 0 4.4 0h11.02a.569.569 0 0 0 0-1.137zm-13.22 1.717a1.144 1.144 0 1 1 1.143-1.144 1.145 1.145 0 0 1-1.143 1.144z" class="cls-2" transform="translate(0 -2.9)"/>
        </g>
    </g>
</svg>
