<svg xmlns="http://www.w3.org/2000/svg" width="55.259" height="18.353" viewBox="0 0 55.259 18.353">
    <defs>
        <style>
            .cls-1{fill:#004084}
        </style>
    </defs>
    <g id="brandLogo" transform="translate(-.986 -1.418)">
        <path id="Path_1598" d="M61.65 46.344h-2.125v1.778h-.576v-3.968h.576v1.662h2.125v-1.662h.576v3.959h-.576z" class="cls-1" transform="translate(-38.669 -28.51)"/>
        <path id="Path_1599" d="M71.985 47.219a1.4 1.4 0 0 1 1.354 1.55v.13h-2.2a.951.951 0 0 0 .295.644.9.9 0 0 0 .648.245 1.166 1.166 0 0 0 .823-.338l.243.356a1.541 1.541 0 0 1-1.118.427 1.44 1.44 0 0 1-1.011-.44 1.539 1.539 0 0 1-.032-2.1 1.442 1.442 0 0 1 1-.473zm-.852 1.294h1.7a.873.873 0 0 0-.063-.332.851.851 0 0 0-.184-.28.823.823 0 0 0-.276-.184.8.8 0 0 0-.324-.058.839.839 0 0 0-.595.249.891.891 0 0 0-.258.605z" class="cls-1" transform="translate(-46.437 -30.555)"/>
        <path id="Path_1600" d="M82.053 49.843a1.191 1.191 0 0 1-.414.294 1.16 1.16 0 0 1-.495.092.9.9 0 0 1-.366-.059.921.921 0 0 1-.314-.2.954.954 0 0 1-.212-.314.978.978 0 0 1-.075-.374.91.91 0 0 1 .967-.939 1.13 1.13 0 0 1 .5.086 1.16 1.16 0 0 1 .414.294v-.475c0-.356-.281-.569-.68-.569a1.115 1.115 0 0 0-.456.1 1.145 1.145 0 0 0-.379.279l-.224-.368a1.561 1.561 0 0 1 .523-.355 1.523 1.523 0 0 1 .617-.115c.605 0 1.118.274 1.118 1v1.934h-.517zm0-.8a.884.884 0 0 0-.32-.249.858.858 0 0 0-.394-.077.573.573 0 1 0 0 1.139.859.859 0 0 0 .394-.078.885.885 0 0 0 .32-.25z" class="cls-1" transform="translate(-52.831 -30.555)"/>
        <path id="Path_1601" d="M89.959 44.154h.517v3.959h-.517z" class="cls-1" transform="translate(-59.357 -28.51)"/>
        <path id="Path_1602" d="M93.626 48.1v-1.766h-.46v-.469h.46v-.782h.517v.782h.564v.469h-.564v1.644c0 .2.091.356.271.356a.392.392 0 0 0 .281-.112l.133.4a.733.733 0 0 1-.254.145.718.718 0 0 1-.288.033c-.434 0-.66-.25-.66-.7z" class="cls-1" transform="translate(-61.496 -29.13)"/>
        <path id="Path_1603" d="M101.741 46.267c0-.475-.236-.617-.593-.617a.968.968 0 0 0-.429.117 1 1 0 0 0-.337.3v2.048h-.517v-3.961h.517v1.5a1.33 1.33 0 0 1 .442-.347 1.294 1.294 0 0 1 .541-.13.8.8 0 0 1 .893.916v2.023h-.517z" class="cls-1" transform="translate(-65.966 -28.51)"/>
        <path id="Path_1604" d="M110.291 47.216a1.177 1.177 0 0 1 .579.118 1.218 1.218 0 0 1 .456.387l-.345.327a.784.784 0 0 0-.291-.268.757.757 0 0 0-.381-.088 1.039 1.039 0 0 0 0 2.059.772.772 0 0 0 .38-.09.8.8 0 0 0 .292-.266l.345.325a1.218 1.218 0 0 1-.456.387 1.177 1.177 0 0 1-.579.118 1.508 1.508 0 0 1 0-3.01z" class="cls-1" transform="translate(-71.977 -30.552)"/>
        <path id="Path_1605" d="M119.5 49.843a1.2 1.2 0 0 1-.415.294 1.164 1.164 0 0 1-.5.092.9.9 0 0 1-.366-.059.92.92 0 0 1-.314-.2.95.95 0 0 1-.212-.314.974.974 0 0 1-.076-.374.911.911 0 0 1 .968-.939 1.136 1.136 0 0 1 .5.087 1.167 1.167 0 0 1 .414.294v-.475c0-.356-.283-.569-.68-.569a1.11 1.11 0 0 0-.456.1 1.14 1.14 0 0 0-.379.279l-.226-.368a1.56 1.56 0 0 1 .524-.355 1.524 1.524 0 0 1 .616-.115c.605 0 1.117.274 1.117 1v1.934h-.515zm0-.8a.886.886 0 0 0-.32-.249.859.859 0 0 0-.394-.077.581.581 0 0 0-.64.569.588.588 0 0 0 .64.576.859.859 0 0 0 .394-.078.884.884 0 0 0 .32-.25z" class="cls-1" transform="translate(-77.815 -30.555)"/>
        <path id="Path_1606" d="M127.352 47.3h.517v.437a1.193 1.193 0 0 1 .4-.359 1.156 1.156 0 0 1 .512-.144v.533a.782.782 0 0 0-.172-.018.96.96 0 0 0-.41.123.992.992 0 0 0-.321.291v1.997h-.518z" class="cls-1" transform="translate(-84.303 -30.566)"/>
        <path id="Path_1607" d="M133.849 47.219a1.394 1.394 0 0 1 1.352 1.55v.13H133a.95.95 0 0 0 .3.644.9.9 0 0 0 .648.245 1.169 1.169 0 0 0 .824-.338l.242.356a1.536 1.536 0 0 1-1.118.427 1.441 1.441 0 0 1-1.011-.441 1.539 1.539 0 0 1-.031-2.1 1.442 1.442 0 0 1 1-.473zm-.862 1.294h1.707a.871.871 0 0 0-.063-.332.849.849 0 0 0-.184-.28.821.821 0 0 0-.275-.184.8.8 0 0 0-.324-.058.85.85 0 0 0-.593.251.9.9 0 0 0-.261.6z" class="cls-1" transform="translate(-87.708 -30.555)"/>
        <path id="Path_1608" d="M15.828 1.418v13.653a2.035 2.035 0 0 1-.216.911 1.969 1.969 0 0 1-.6.707l-3.686 2.7a1.943 1.943 0 0 1-1.149.379H6.641a1.943 1.943 0 0 1-1.149-.379l-3.692-2.7a1.972 1.972 0 0 1-.6-.707 2.039 2.039 0 0 1-.217-.911V1.418z" class="cls-1"/>
        <path id="Path_1609" fill="#45c0be" d="M13.31 14.811H9.483a2.476 2.476 0 0 0-.974.2 2.539 2.539 0 0 0-.825.569l-2.222 2.29h2.967v3.06l2.971-3.06 2.968 3.059V17.87h2.968l-2.223-2.291a2.536 2.536 0 0 0-.825-.569 2.474 2.474 0 0 0-.978-.199zM9.483 14.6h3.827a2.475 2.475 0 0 0 .974-.2 2.537 2.537 0 0 0 .825-.569l2.223-2.284h-2.969V8.495L11.4 11.552 8.429 8.495v3.058H5.462l2.221 2.291a2.5 2.5 0 0 0 1.8.756z" transform="translate(-2.986 -4.721)"/>
        <path id="Path_1610" fill="#fff" d="M21.221 21.73h-1.537v-1.582H18.22v1.582h-1.535v1.511h1.535v1.582h1.464v-1.582h1.537z" transform="translate(-10.474 -12.495)"/>
        <path id="Path_1611" d="M104.325 1.418h-2.834l-4.548 11.719h2.9l.862-2.434h4.43l.865 2.434h2.9zm.055 7.137h-2.932l1.464-4.14z" class="cls-1" transform="translate(-64.016)"/>
        <path id="Path_1612" d="M138.794 7.114l3.948-5.7H139.5l-2.487 3.8-2.52-3.8h-3.209l3.948 5.714-4.2 6.005h3.211l2.775-4.074 2.761 4.074H143z" class="cls-1" transform="translate(-86.754)"/>
        <path id="Path_1613" d="M68.189 1.418l-3.382 4.91-3.382-4.91h-2.476v11.719h2.671v-7.3l3.187 4.457 3.187-4.457v7.3h2.671V1.418z" class="cls-1" transform="translate(-38.669)"/>
    </g>
</svg>
